# xmcd
#
# Track frame offsets:
#	150
#	35137
#	55651
#	88112
#	128195
#	149966
#	195657
#	227121
#
# Disc length: 3551 seconds
#
# Revision: 1
# Processed by: cddbd v1.5.2PL0 Copyright (c) Steve Scherf et al.
# Submitted via: EasyCDDAExtractor 11.0.3.1
#
DISCID=780ddd08
DTITLE=Harry Manx with Steve Marriner (H)-Kevin Breit (g)-George Koller (b)-Ra
DTITLE=vi Naimpally (tab)-Samidha Joglekar (v) - Harry Manx and Friends (At the 
DTITLE=Glenn Gould Studio)
DYEAR=2007
DGENRE=Blues-World-Male vocal
TTITLE0=Point of Purchase
TTITLE1=Take this Hammer
TTITLE2=Single Spark
TTITLE3=Voodoo Child
TTITLE4=Good Time Charlie
TTITLE5=Can't be Satisfied
TTITLE6=Samidha's Tune
TTITLE7=Tijuana
EXTD=Live at the Glenn Gould Studio\nHarry Manx with\nSteve Marriner,\nKevin B
EXTD=reit,\nGeorge Koller,\nRavi Naimpally,\nSamidha Jpglekar
EXTT0=
EXTT1=
EXTT2=
EXTT3=
EXTT4=
EXTT5=
EXTT6=
EXTT7=
PLAYORDER=
